<?xml version="1.0" encoding="UTF-8"?>
<svg version="1.1" xmlns="http://www.w3.org/2000/svg" width="545" height="527">
<path d="M0 0 C7.92875535 5.35993742 12.01345524 12.04036572 15 21 C15.82941799 30.69467254 15.01529982 39.11652725 8.6875 46.8125 C6.70945993 48.85292469 6.70945993 48.85292469 7.26049805 51.33886719 C7.99932096 53.99755643 8.9362412 56.28736419 10.14453125 58.765625 C10.57443359 59.65636719 11.00433594 60.54710938 11.44726562 61.46484375 C12.12305664 62.84349609 12.12305664 62.84349609 12.8125 64.25 C22 83.16464758 22 83.16464758 22 86 C23.35774536 85.70343506 23.35774536 85.70343506 24.74291992 85.40087891 C33.90971085 83.472702 42.97213207 82.20820059 52.3125 81.375 C53.57255859 81.25382812 54.83261719 81.13265625 56.13085938 81.0078125 C73.59050307 79.38119253 90.96765483 78.79482932 108.5 78.8125 C109.52102814 78.81277191 110.54205627 78.81304382 111.59402466 78.81332397 C137.44156304 78.84475857 163.01940272 80.02242684 188.63769531 83.66845703 C192.08707633 84.15256817 195.54265595 84.57689846 199 85 C203.00463586 77.21598905 206.80699895 69.36881988 210.375 61.375 C210.89320313 60.22088623 210.89320313 60.22088623 211.421875 59.04345703 C211.74414062 58.31497559 212.06640625 57.58649414 212.3984375 56.8359375 C212.68380371 56.19188965 212.96916992 55.5478418 213.26318359 54.88427734 C214.031302 52.91995067 214.63695059 51.07950384 215 49 C213.88099597 46.98685061 213.88099597 46.98685061 212.1875 45.125 C206.8544031 38.86716184 206.54459144 32.49825247 206.6953125 24.53515625 C207.50123225 15.18442069 211.95487348 8.0953569 219 2 C228.11978564 -3.7375228 237.25276471 -5.63045032 247.9140625 -3.38671875 C256.71960879 -0.57142437 263.406405 4.61589736 268 12.6875 C272.11948786 22.07476503 271.78359075 31.41606191 268.4296875 40.98046875 C264.91284291 48.40812139 259.42328329 53.62578032 252 57 C248.10900593 58.34416159 245.20696592 59.0022653 241.07421875 58.95703125 C238.29208403 59.29706638 237.33115098 59.57969517 235.57446289 61.80932617 C234.30319782 64.32957182 233.25343367 66.86175867 232.25 69.5 C231.89035156 70.37398438 231.53070313 71.24796875 231.16015625 72.1484375 C230.44204964 73.89574383 229.73681427 75.64839863 229.04492188 77.40625 C227.70918942 80.72186252 226.2300415 83.96314388 224.72558594 87.20507812 C223.87507335 88.98636595 223.87507335 88.98636595 224 91 C224.63276855 91.20044922 225.26553711 91.40089844 225.91748047 91.60742188 C254.75460285 100.8077626 279.71117731 111.9358379 302 133 C303.30904297 134.19496094 303.30904297 134.19496094 304.64453125 135.4140625 C329.24707938 158.71432983 343.80884719 194.25067048 345 228 C345.07734375 229.59328125 345.07734375 229.59328125 345.15625 231.21875 C346.16024811 269.70534418 331.86282184 306.62111604 305.64453125 334.63671875 C266.91643035 374.92543153 210.90267337 390.17049502 156.9375 396.3125 C155.80184601 396.443078 155.80184601 396.443078 154.64324951 396.57629395 C145.37574821 397.61687459 136.35154134 398.07190403 127.02319336 397.96289062 C112.59694891 397.86417825 105.41995342 400.36620643 95.02197266 410.21582031 C91.49916624 413.32432904 87.55536304 415.73193146 83.5625 418.1875 C82.76980713 418.68000244 81.97711426 419.17250488 81.16040039 419.67993164 C72.93098038 424.73973713 64.5264739 429.46177842 56 434 C54.99356445 434.54116455 54.99356445 434.54116455 53.96679688 435.09326172 C39.31159525 442.92260466 22.05581501 451.89509056 5 450 C1.38308725 447.90219061 0.31708591 446.95125774 -1 443 C-1.77260597 435.98059207 0.78744629 430.1027263 3.125 423.5625 C7.30287044 411.51812192 10.62899365 399.4221723 13.47851562 387.00170898 C14 385 14 385 15 383 C14.195625 382.86464844 13.39125 382.72929687 12.5625 382.58984375 C-18.87361374 376.83345012 -48.83453607 365.34556489 -73 344 C-73.98613281 343.14664062 -74.97226563 342.29328125 -75.98828125 341.4140625 C-101.28579965 319.18315387 -116.59132213 288.21689798 -121 255 C-121.0935376 254.30479248 -121.1870752 253.60958496 -121.28344727 252.89331055 C-125.85745845 215.82776353 -116.51861445 177.97816169 -93.67431641 148.27636719 C-90.57936323 144.39694845 -87.32649288 140.68203311 -84 137 C-82.94232422 135.81664062 -82.94232422 135.81664062 -81.86328125 134.609375 C-64.88135256 116.62470386 -42.01862011 104.75134342 -19.125 96.1875 C-18.3525293 95.8972998 -17.58005859 95.60709961 -16.78417969 95.30810547 C-11.59578169 93.42171881 -6.41468946 92.0693009 -1 91 C-1.38857178 90.17274414 -1.77714355 89.34548828 -2.17749023 88.49316406 C-3.62093826 85.41570953 -5.06117158 82.33679292 -6.49926758 79.25683594 C-7.12168744 77.92550851 -7.74537328 76.59477217 -8.37036133 75.26464844 C-9.26979748 73.34985834 -10.1646214 71.43297096 -11.05859375 69.515625 C-11.59798584 68.36352539 -12.13737793 67.21142578 -12.69311523 66.02441406 C-13.72121576 63.64516705 -14.49814454 61.52826643 -15 59 C-16.093125 59.0825 -17.18625 59.165 -18.3125 59.25 C-26.79423927 59.20496422 -34.2162888 55.72975027 -40.28125 49.92578125 C-47.25272056 42.11456538 -49.60630466 34.0863674 -49.44140625 23.67578125 C-48.46683321 15.56008895 -44.19230052 7.92534784 -38.09375 2.46875 C-26.49320705 -5.66894431 -12.52631086 -6.7390791 0 0 Z " fill="#4D89E2" transform="translate(162,42)"/>
<path d="M0 0 C0.6952692 -0.00282738 1.39053841 -0.00565475 2.10687637 -0.00856781 C5.801886 -0.02342234 9.49685812 -0.03273256 13.19189453 -0.03710938 C16.16207483 -0.04144658 19.13195684 -0.05517142 22.10205078 -0.078125 C49.20351666 -0.28291615 76.31283562 0.81415658 103.0078125 5.890625 C103.67591949 6.01495911 104.34402649 6.13929321 105.03237915 6.26739502 C131.89171042 11.3198479 157.75991805 21.83088613 174.8203125 44.203125 C189.28747087 65.67881787 192.19036244 92.47028638 187.7578125 117.765625 C185.15862248 129.57232305 179.31310496 140.09529792 172.8203125 150.203125 C173.4803125 150.203125 174.1403125 150.203125 174.8203125 150.203125 C175.79318196 156.45728579 173.63076471 160.10489218 170.12890625 165.234375 C159.0519198 179.47889226 145.61836324 188.05656552 128.8203125 194.203125 C127.23689244 194.84874568 125.65353868 195.49452902 124.0703125 196.140625 C120.8203125 197.203125 120.8203125 197.203125 117.8203125 196.203125 C118.3153125 195.5225 118.8103125 194.841875 119.3203125 194.140625 C121.17337705 190.51170692 121.34208439 188.22822247 120.8203125 184.203125 C119.35989484 182.08642143 119.35989484 182.08642143 116.8203125 181.203125 C112.10260377 180.77424239 109.12366385 181.46657379 104.8203125 183.203125 C94.17001282 186.02841283 83.21932882 187.41370752 72.31689453 188.86669922 C70.10616707 189.1646048 67.89876365 189.47906776 65.69140625 189.80078125 C11.46991186 197.30837278 -66.63559599 197.96865549 -114.046875 167.3515625 C-116.19514444 165.72363514 -118.18664787 164.01609534 -120.1796875 162.203125 C-121.29150391 161.30013672 -121.29150391 161.30013672 -122.42578125 160.37890625 C-137.25228136 148.05265911 -146.31885261 129.2613123 -148.86328125 110.28125 C-151.22664807 84.45254591 -148.01219765 59.65358583 -130.9296875 39.015625 C-98.92889863 4.74427018 -44.16264686 0.14365822 0 0 Z " fill="#F8FAFB" transform="translate(253.1796875,180.796875)"/>
<path d="M0 0 C7.92875535 5.35993742 12.01345524 12.04036572 15 21 C15.82941799 30.69467254 15.01529982 39.11652725 8.6875 46.8125 C6.70945993 48.85292469 6.70945993 48.85292469 7.26049805 51.33886719 C7.99932096 53.99755643 8.9362412 56.28736419 10.14453125 58.765625 C10.57443359 59.65636719 11.00433594 60.54710938 11.44726562 61.46484375 C12.12305664 62.84349609 12.12305664 62.84349609 12.8125 64.25 C22 83.16464758 22 83.16464758 22 86 C23.35774536 85.70343506 23.35774536 85.70343506 24.74291992 85.40087891 C33.90971085 83.472702 42.97213207 82.20820059 52.3125 81.375 C53.57255859 81.25382812 54.83261719 81.13265625 56.13085938 81.0078125 C73.59050307 79.38119253 90.96765483 78.79482932 108.5 78.8125 C109.52102814 78.81277191 110.54205627 78.81304382 111.59402466 78.81332397 C184.4377484 78.90191319 184.4377484 78.90191319 202 88 C192.40834434 87.33709464 182.89998351 86.32989299 173.36523438 85.10546875 C154.14402786 82.76918951 134.81138118 82.81185486 115.47802734 82.81469727 C112.68076014 82.81477789 109.88365896 82.80791952 107.08642578 82.79418945 C62.23063474 82.5377591 62.23063474 82.5377591 18 89 C16.56018926 89.30477493 15.12005126 89.60800568 13.6796875 89.91015625 C12.07800013 90.25201967 10.47643865 90.59447339 8.875 90.9375 C8.1221875 91.09524902 7.369375 91.25299805 6.59375 91.41552734 C2.25447908 92.36426706 -1.80812611 93.58369368 -5.94091797 95.20776367 C-8.13970606 96.05375221 -10.35665449 96.8044717 -12.59375 97.54296875 C-23.5845582 101.20582836 -33.82383415 105.4734853 -44 111 C-44.6914209 111.36915527 -45.3828418 111.73831055 -46.09521484 112.11865234 C-48.21634817 113.25415957 -50.32847644 114.40467289 -52.4375 115.5625 C-53.37674316 116.07176025 -53.37674316 116.07176025 -54.33496094 116.59130859 C-63.83960137 121.92605791 -71.49448465 129.17479958 -79.125 136.875 C-79.97964844 137.72191406 -80.83429688 138.56882813 -81.71484375 139.44140625 C-87.95796199 145.70370458 -94.05990287 152.01497175 -98 160 C-98.90878906 161.07314453 -98.90878906 161.07314453 -99.8359375 162.16796875 C-102.72838324 165.95320912 -104.61566038 170.00916432 -106.625 174.3125 C-107.01945312 175.12912109 -107.41390625 175.94574219 -107.8203125 176.78710938 C-110.19337554 181.81784267 -111.82316521 186.56442148 -113 192 C-113.51569747 194.12119416 -114.06271456 196.21143764 -114.68359375 198.3046875 C-120.72464808 218.90061365 -121.35376937 242.11043773 -116.45751953 263.03173828 C-115.9774464 265.09702622 -115.54726157 267.16905658 -115.12109375 269.24609375 C-113.00406133 279.21754165 -109.81302527 288.55640742 -106 298 C-106.66 298.33 -107.32 298.66 -108 299 C-124.37398307 264.00131454 -127.27747984 222.99288779 -114.48706055 186.31201172 C-107.60530288 167.80158283 -97.19148249 151.60140667 -84 137 C-82.94232422 135.81664062 -82.94232422 135.81664062 -81.86328125 134.609375 C-64.88135256 116.62470386 -42.01862011 104.75134342 -19.125 96.1875 C-18.3525293 95.8972998 -17.58005859 95.60709961 -16.78417969 95.30810547 C-11.59578169 93.42171881 -6.41468946 92.0693009 -1 91 C-1.38857178 90.17274414 -1.77714355 89.34548828 -2.17749023 88.49316406 C-3.62093826 85.41570953 -5.06117158 82.33679292 -6.49926758 79.25683594 C-7.12168744 77.92550851 -7.74537328 76.59477217 -8.37036133 75.26464844 C-9.26979748 73.34985834 -10.1646214 71.43297096 -11.05859375 69.515625 C-11.59798584 68.36352539 -12.13737793 67.21142578 -12.69311523 66.02441406 C-13.72121576 63.64516705 -14.49814454 61.52826643 -15 59 C-16.093125 59.0825 -17.18625 59.165 -18.3125 59.25 C-26.79423927 59.20496422 -34.2162888 55.72975027 -40.28125 49.92578125 C-47.25272056 42.11456538 -49.60630466 34.0863674 -49.44140625 23.67578125 C-48.46683321 15.56008895 -44.19230052 7.92534784 -38.09375 2.46875 C-26.49320705 -5.66894431 -12.52631086 -6.7390791 0 0 Z " fill="#34B4E6" transform="translate(162,42)"/>
<path d="M0 0 C7.509791 6.13196158 11.35693657 12.99688568 12.55078125 22.6171875 C12.90159815 31.92479839 10.72299897 40.17876333 4.67578125 47.3671875 C-1.5421298 53.65418645 -8.47802214 57.20569642 -17.484375 57.3828125 C-20.00916963 57.68643994 -21.1193609 57.85717157 -22.81420898 59.7902832 C-23.87520535 61.77917052 -24.71589971 63.75845928 -25.51171875 65.8671875 C-25.95837891 66.93356445 -25.95837891 66.93356445 -26.4140625 68.02148438 C-27.1419979 69.77087752 -27.83081238 71.53645877 -28.51171875 73.3046875 C-28.84171875 73.3046875 -29.17171875 73.3046875 -29.51171875 73.3046875 C-29.51171875 70.6646875 -29.51171875 68.0246875 -29.51171875 65.3046875 C-30.15109375 65.2221875 -30.79046875 65.1396875 -31.44921875 65.0546875 C-35.71713392 64.00948378 -39.54279542 62.16376924 -43.51171875 60.3046875 C-43.51171875 59.6446875 -43.51171875 58.9846875 -43.51171875 58.3046875 C-45.49171875 58.7996875 -45.49171875 58.7996875 -47.51171875 59.3046875 C-47.21136719 58.70140625 -46.91101563 58.098125 -46.6015625 57.4765625 C-46.22128906 56.67734375 -45.84101563 55.878125 -45.44921875 55.0546875 C-45.06636719 54.26578125 -44.68351562 53.476875 -44.2890625 52.6640625 C-43.40042333 49.96688631 -43.45933622 48.90906851 -44.51171875 46.3046875 C-45.66753111 44.54076481 -46.94722674 42.93219683 -48.2578125 41.28125 C-52.84958577 34.04312764 -52.67836597 24.62843843 -50.89453125 16.48828125 C-47.88729895 7.98553152 -42.27293447 1.42845488 -34.26171875 -2.6953125 C-22.93360693 -7.89037015 -10.38418467 -7.00892091 0 0 Z " fill="#9659DD" transform="translate(420.51171875,43.6953125)"/>
<path d="M0 0 C0 0.66 0 1.32 0 2 C0.66 2.185625 1.32 2.37125 2 2.5625 C9.28355369 6.05253614 15.12093856 12.30898645 18.75 19.4375 C21.72032927 28.33180056 21.07255467 37.18213149 16.9375 45.5 C12.19836286 54.29166858 6.59350107 58.4912853 -2.6796875 62.08203125 C-10.76414988 64.31714732 -19.41474502 64.33703753 -26.9140625 60.30859375 C-27.60242188 59.87675781 -28.29078125 59.44492187 -29 59 C-29.77085937 58.53722656 -30.54171875 58.07445312 -31.3359375 57.59765625 C-38.49542315 52.73348743 -42.57659405 45.78041684 -44.640625 37.3984375 C-46.19691907 27.01186618 -43.77264701 18.62278206 -37.73046875 10.07421875 C-28.76878314 -0.66766626 -13.27997266 -4.42665755 0 0 Z " fill="#0D6EB6" transform="translate(373,235)"/>
<path d="M0 0 C9.20665927 5.23068607 15.3329231 11.85486039 18.20703125 22.25390625 C19.42565348 33.4198867 17.05068667 42.6298203 10.046875 51.43359375 C3.76290571 57.65085423 -4.56515827 61.52140025 -13.35546875 61.69140625 C-21.88787708 61.56606132 -29.3655674 59.07698131 -36.23046875 53.94140625 C-42.38817722 47.48332176 -46.8172492 39.33282222 -47.10546875 30.25390625 C-46.70026161 21.39220232 -44.38215614 14.21121542 -38.35546875 7.56640625 C-35.87955952 5.33204914 -33.4994576 3.20509589 -30.79296875 1.25390625 C-30.27605469 0.87878906 -29.75914062 0.50367188 -29.2265625 0.1171875 C-20.67049376 -5.14950708 -8.82536095 -4.20046201 0 0 Z " fill="#0C6EB6" transform="translate(199.79296875,236.74609375)"/>
<path d="M0 0 C5.97380976 3.61572696 10.91650921 8.24020471 16 13 C16.88042969 13.80308594 17.76085937 14.60617188 18.66796875 15.43359375 C43.25242744 38.7409377 57.80906112 74.25673164 59 108 C59.07734375 109.59328125 59.07734375 109.59328125 59.15625 111.21875 C60.16024811 149.70534418 45.86282184 186.62111604 19.64453125 214.63671875 C-19.08356965 254.92543153 -75.09732663 270.17049502 -129.0625 276.3125 C-130.19815399 276.443078 -130.19815399 276.443078 -131.35675049 276.57629395 C-140.62425179 277.61687459 -149.64845866 278.07190403 -158.97680664 277.96289062 C-173.40305109 277.86417825 -180.58004658 280.36620643 -190.97802734 290.21582031 C-194.50083376 293.32432904 -198.44463696 295.73193146 -202.4375 298.1875 C-203.23019287 298.68000244 -204.02288574 299.17250488 -204.83959961 299.67993164 C-213.06901962 304.73973713 -221.4735261 309.46177842 -230 314 C-231.00643555 314.54116455 -231.00643555 314.54116455 -232.03320312 315.09326172 C-246.68840475 322.92260466 -263.94418499 331.89509056 -281 330 C-284.61691275 327.90219061 -285.68291409 326.95125774 -287 323 C-287.77260597 315.98059207 -285.21255371 310.1027263 -282.875 303.5625 C-278.69712956 291.51812192 -275.37100635 279.4221723 -272.52148438 267.00170898 C-272 265 -272 265 -271 263 C-271.804375 262.86464844 -272.60875 262.72929687 -273.4375 262.58984375 C-304.87361374 256.83345012 -334.83453607 245.34556489 -359 224 C-359.98613281 223.14664063 -360.97226562 222.29328125 -361.98828125 221.4140625 C-374.01172314 210.84812343 -382.98443549 198.77882164 -391 185 C-391.66515625 183.87078125 -391.66515625 183.87078125 -392.34375 182.71875 C-393 181 -393 181 -392 178 C-391.42378906 178.97646484 -391.42378906 178.97646484 -390.8359375 179.97265625 C-388.49374348 183.83478469 -386.06758111 187.63829613 -383.625 191.4375 C-383.15578125 192.17548828 -382.6865625 192.91347656 -382.203125 193.67382812 C-380.0077939 197.08508157 -377.79810371 200.33381723 -375.1484375 203.41015625 C-373 206 -373 206 -373 208 C-372.01 208.33 -371.02 208.66 -370 209 C-368.4921875 210.56640625 -368.4921875 210.56640625 -366.875 212.5625 C-345.12095821 238.02513103 -313.4174113 249.75665639 -282 258 C-280.93394531 258.28190186 -279.86789062 258.56380371 -278.76953125 258.85424805 C-273.09934746 260.31859976 -267.56408283 261.4876567 -261.75 262.1875 C-260.46609375 262.34605469 -259.1821875 262.50460937 -257.859375 262.66796875 C-256.91578125 262.77753906 -255.9721875 262.88710938 -255 263 C-255 263.33 -255 263.66 -255 264 C-256.39572052 264.02736707 -257.79160221 264.04655989 -259.1875 264.0625 C-259.96480469 264.07410156 -260.74210938 264.08570313 -261.54296875 264.09765625 C-264.12112711 263.99518573 -266.48655731 263.56697553 -269 263 C-269.18175781 264.32064453 -269.18175781 264.32064453 -269.3671875 265.66796875 C-269.53476562 266.82941406 -269.70234375 267.99085938 -269.875 269.1875 C-270.03742188 270.33605469 -270.19984375 271.48460937 -270.3671875 272.66796875 C-270.94593735 275.71533677 -271.80838145 278.15563847 -273 281 C-273.50921838 282.90890242 -273.98712498 284.82636434 -274.4375 286.75 C-276.00274537 293.15115273 -277.95987097 299.26380471 -280.30078125 305.421875 C-280.75839844 306.64390625 -281.21601563 307.8659375 -281.6875 309.125 C-282.12449219 310.26195312 -282.56148438 311.39890625 -283.01171875 312.5703125 C-284.38375382 317.33176226 -284.57094087 321.28717739 -283 326 C-276.36252757 329.31873621 -267.59009597 326.75257376 -260.95385742 324.609375 C-242.71830708 318.24253533 -225.39389524 309.13596854 -209 299 C-208.35643555 298.6071582 -207.71287109 298.21431641 -207.04980469 297.80957031 C-192.57513153 289.1225924 -192.57513153 289.1225924 -180.16772461 277.89013672 C-177.45349921 275.52348135 -176.13428871 275.50300301 -172.57421875 275.49609375 C-171.48367188 275.4796582 -170.393125 275.46322266 -169.26953125 275.44628906 C-168.08746094 275.44338867 -166.90539062 275.44048828 -165.6875 275.4375 C-163.13916162 275.38640051 -160.59096972 275.3275272 -158.04296875 275.26171875 C-157.38340179 275.24501129 -156.72383484 275.22830383 -156.04428101 275.21109009 C-104.17257092 273.73685058 -46.24624766 262.87106625 -4 231 C-2.10539835 229.64411063 -0.20956505 228.2899406 1.6875 226.9375 C9.89544966 221.45257503 9.89544966 221.45257503 16 214 C16.66 214 17.32 214 18 214 C18.41572266 213.10087891 18.41572266 213.10087891 18.83984375 212.18359375 C20.25311026 209.52360729 22.18266668 207.49526852 24.16015625 205.2421875 C47.95424506 176.24472046 58.51932993 138.96633217 55.4375 101.75 C52.46630665 72.78289623 41.87291408 46.38338177 22.84765625 24.3046875 C21 22 21 22 19.93359375 19.7578125 C19.06748623 17.63943114 19.06748623 17.63943114 16 17 C16 16.34 16 15.68 16 15 C15.44441406 14.76152344 14.88882812 14.52304688 14.31640625 14.27734375 C11.46938564 12.70740153 9.33071826 10.76079551 6.9375 8.5625 C5.65166016 7.38880859 5.65166016 7.38880859 4.33984375 6.19140625 C2.52403566 4.49079133 0.74156074 2.77582096 -1 1 C-0.67 0.67 -0.34 0.34 0 0 Z " fill="#0C44D7" transform="translate(448,162)"/>
<path d="M0 0 C4.06608789 0.16264352 7.2036829 0.97779332 10.75 2.875 C22.51996492 9.02952364 36.68144896 9.80291037 49.5625 6.84375 C53.64953484 5.42900717 57.38202747 3.36528718 61.140625 1.2421875 C64.36674733 -0.15932466 66.51836809 -0.38356962 70 0 C72 2 72 2 72.125 5.625 C72.08375 6.73875 72.0425 7.8525 72 9 C71.34 9 70.68 9 70 9 C69.814375 9.680625 69.62875 10.36125 69.4375 11.0625 C65.18367446 19.75510002 56.15014644 25.04649618 47.375 28.375 C33.38369299 31.13344874 20.38902445 28.91314179 8.55859375 21.04296875 C4.11421 17.49424707 0.5474729 13.09494579 -2 8 C-2.1875 5 -2.1875 5 -2 2 C-1.34 1.34 -0.68 0.68 0 0 Z " fill="#0A5FA5" transform="translate(238,295)"/>
<path d="M0 0 C5.97380976 3.61572696 10.91650921 8.24020471 16 13 C16.88042969 13.80308594 17.76085937 14.60617188 18.66796875 15.43359375 C43.25242744 38.7409377 57.80906112 74.25673164 59 108 C59.0515625 109.0621875 59.103125 110.124375 59.15625 111.21875 C60.16024811 149.70534418 45.86282184 186.62111604 19.64453125 214.63671875 C7.83504878 226.92208355 -5.39559112 236.31401824 -20 245 C-20.97114746 245.58249512 -20.97114746 245.58249512 -21.96191406 246.17675781 C-26.75820347 249 -26.75820347 249 -29 249 C-28 246 -28 246 -25.4453125 244.45703125 C-24.34960938 243.91433594 -23.25390625 243.37164062 -22.125 242.8125 C-15.59290245 239.46199219 -9.85325062 235.4345382 -4 231 C-2.10574808 229.64362208 -0.20991915 228.28944377 1.6875 226.9375 C9.89544966 221.45257503 9.89544966 221.45257503 16 214 C16.66 214 17.32 214 18 214 C18.27714844 213.40058594 18.55429687 212.80117188 18.83984375 212.18359375 C20.25311026 209.52360729 22.18266668 207.49526852 24.16015625 205.2421875 C47.95424506 176.24472046 58.51932993 138.96633217 55.4375 101.75 C52.46630665 72.78289623 41.87291408 46.38338177 22.84765625 24.3046875 C21 22 21 22 19.93359375 19.7578125 C19.06748623 17.63943114 19.06748623 17.63943114 16 17 C16 16.34 16 15.68 16 15 C15.44441406 14.76152344 14.88882813 14.52304688 14.31640625 14.27734375 C11.46938564 12.70740153 9.33071826 10.76079551 6.9375 8.5625 C6.08027344 7.78003906 5.22304688 6.99757812 4.33984375 6.19140625 C2.52403566 4.49079133 0.74156074 2.77582096 -1 1 C-0.67 0.67 -0.34 0.34 0 0 Z " fill="#B047DC" transform="translate(448,162)"/>
<path d="M0 0 C0 0.33 0 0.66 0 1 C-1.05960938 1.31130859 -1.05960938 1.31130859 -2.140625 1.62890625 C-18.39899307 6.51050169 -34.05440755 11.88328515 -49 20 C-49.6914209 20.36915527 -50.3828418 20.73831055 -51.09521484 21.11865234 C-53.21634817 22.25415957 -55.32847644 23.40467289 -57.4375 24.5625 C-58.06366211 24.90200684 -58.68982422 25.24151367 -59.33496094 25.59130859 C-68.83960137 30.92605791 -76.49448465 38.17479958 -84.125 45.875 C-84.97964844 46.72191406 -85.83429688 47.56882813 -86.71484375 48.44140625 C-92.95796199 54.70370458 -99.05990287 61.01497175 -103 69 C-103.60585937 69.71542969 -104.21171875 70.43085938 -104.8359375 71.16796875 C-107.72838324 74.95320912 -109.61566038 79.00916432 -111.625 83.3125 C-112.01945312 84.12912109 -112.41390625 84.94574219 -112.8203125 85.78710938 C-115.19337554 90.81784267 -116.82316521 95.56442148 -118 101 C-118.51569747 103.12119416 -119.06271456 105.21143764 -119.68359375 107.3046875 C-125.72464808 127.90061365 -126.35376937 151.11043773 -121.45751953 172.03173828 C-120.9774464 174.09702622 -120.54726157 176.16905658 -120.12109375 178.24609375 C-118.00406133 188.21754165 -114.81302527 197.55640742 -111 207 C-111.66 207.33 -112.32 207.66 -113 208 C-129.37398307 173.00131454 -132.27747984 131.99288779 -119.48706055 95.31201172 C-112.60530288 76.80158283 -102.19148249 60.60140667 -89 46 C-88.29488281 45.21109375 -87.58976562 44.4221875 -86.86328125 43.609375 C-67.47176386 23.07283468 -29.12173702 -1.02181533 0 0 Z " fill="#23D8EB" transform="translate(167,133)"/>
<path d="M0 0 C0 0.66 0 1.32 0 2 C0.59167969 2.19335938 1.18335938 2.38671875 1.79296875 2.5859375 C2.58316406 2.84632812 3.37335938 3.10671875 4.1875 3.375 C5.35345703 3.75785156 5.35345703 3.75785156 6.54296875 4.1484375 C9.06367679 5.02206922 11.53064278 5.99120398 14 7 C14.05391993 8.79133978 14.09275571 10.58313899 14.125 12.375 C14.14820313 13.37273437 14.17140625 14.37046875 14.1953125 15.3984375 C14 18 14 18 12 20 C8.8165466 23.59868645 7.56748093 27.52148307 6 32 C3.36 31.67 0.72 31.34 -2 31 C-2 30.34 -2 29.68 -2 29 C-2.69867188 28.87882812 -3.39734375 28.75765625 -4.1171875 28.6328125 C-5.02726562 28.46523437 -5.93734375 28.29765625 -6.875 28.125 C-7.77992188 27.96257812 -8.68484375 27.80015625 -9.6171875 27.6328125 C-12 27 -12 27 -14 25 C-13.3503125 23.2984375 -13.3503125 23.2984375 -12.6875 21.5625 C-11.54669554 18.54523213 -10.52511617 15.51575611 -9.5625 12.4375 C-8.17942311 8.23731385 -6.40024662 4.71651089 -4 1 C-2 0 -2 0 0 0 Z " fill="#7286E2" transform="translate(377,102)"/>
<path d="M0 0 C1.02102814 0.00027191 2.04205627 0.00054382 3.09402466 0.00082397 C75.9377484 0.08941319 75.9377484 0.08941319 93.5 9.1875 C83.90834434 8.52459464 74.39998351 7.51739299 64.86523438 6.29296875 C45.64402786 3.95668951 26.31138118 3.99935486 6.97802734 4.00219727 C4.18076014 4.00227789 1.38365896 3.99541952 -1.41357422 3.98168945 C-43.72258512 3.58440836 -43.72258512 3.58440836 -85.5 9.1875 C-84.84 8.8575 -84.18 8.5275 -83.5 8.1875 C-83.5 7.5275 -83.5 6.8675 -83.5 6.1875 C-72.98615107 4.46014256 -62.49333402 2.97798259 -51.875 2.0625 C-50.57453735 1.94962646 -50.57453735 1.94962646 -49.24780273 1.83447266 C-46.33305688 1.59654513 -43.41763983 1.38699109 -40.5 1.1875 C-39.20416992 1.09847412 -37.90833984 1.00944824 -36.57324219 0.91772461 C-24.38249674 0.13372731 -12.2132749 -0.01230964 0 0 Z " fill="#23C2E5" transform="translate(270.5,120.8125)"/>
<path d="M0 0 C3.31239893 2.20826596 4.04122828 4.01285807 5.703125 7.515625 C9.05930032 13.94492471 13.26915108 20.12589356 18 25.625 C20 28 20 28 20 30 C20.99 30.33 21.98 30.66 23 31 C24.5078125 32.56640625 24.5078125 32.56640625 26.125 34.5625 C47.87904179 60.02513103 79.5825887 71.75665639 111 80 C112.06605469 80.28190186 113.13210937 80.56380371 114.23046875 80.85424805 C119.90065254 82.31859976 125.43591717 83.4876567 131.25 84.1875 C132.53390625 84.34605469 133.8178125 84.50460937 135.140625 84.66796875 C136.55601562 84.83232422 136.55601562 84.83232422 138 85 C138 85.33 138 85.66 138 86 C136.60427948 86.02736707 135.20839779 86.04655989 133.8125 86.0625 C133.03519531 86.07410156 132.25789062 86.08570313 131.45703125 86.09765625 C128.87887289 85.99518573 126.51344269 85.56697553 124 85 C123.81824219 86.32064453 123.81824219 86.32064453 123.6328125 87.66796875 C123.46523437 88.82941406 123.29765625 89.99085938 123.125 91.1875 C122.96257812 92.33605469 122.80015625 93.48460937 122.6328125 94.66796875 C122.05406265 97.71533677 121.19161855 100.15563847 120 103 C119.49078162 104.90890242 119.01287502 106.82636434 118.5625 108.75 C117.30125714 113.94940933 115.7669433 118.95159058 114 124 C113.34 123.67 112.68 123.34 112 123 C114.85471303 110.18737623 118.29875752 97.59275434 122 85 C121.195625 84.86464844 120.39125 84.72929687 119.5625 84.58984375 C88.12638626 78.83345012 58.16546393 67.34556489 34 46 C33.01386719 45.14664063 32.02773437 44.29328125 31.01171875 43.4140625 C18.50314505 32.42180015 6.50769863 18.56188803 0 3 C0 2.01 0 1.02 0 0 Z " fill="#044ED8" transform="translate(55,340)"/>
<path d="M0 0 C3.375 2.125 3.375 2.125 6 5 C6.8090631 8.64078393 6.71126627 10.71972072 4.88671875 14.00390625 C2.26837824 17.49737944 0.82967966 18.85444217 -3.5625 19.625 C-7.83360032 18.84843631 -10.60926525 17.78808754 -13.3125 14.3125 C-14.34785391 10.82994593 -14.73617124 7.58515395 -14 4 C-9.69449609 -0.53823385 -5.99844963 -1.64663323 0 0 Z " fill="#E3F4FA" transform="translate(363,244)"/>
<path d="M0 0 C3.03978021 0.68164768 4.80055419 2.23591662 6.93359375 4.43359375 C8.34360039 7.25360702 8.17907826 9.3036663 7.93359375 12.43359375 C6.26597053 15.92766144 5.19353353 17.26030056 1.93359375 19.43359375 C-1.16119343 19.83292113 -3.10673604 20.07850243 -6.06640625 19.43359375 C-9.16099861 16.85476678 -10.62063859 15.30801024 -11.54296875 11.4296875 C-11.8153447 7.65226308 -11.15194444 5.56190103 -9.06640625 2.43359375 C-5.71397384 0.19863881 -3.9372435 -0.24561254 0 0 Z " fill="#EBF7FA" transform="translate(190.06640625,243.56640625)"/>
<path d="M0 0 C0.66 0 1.32 0 2 0 C1.63573799 4.97824744 0.13345511 7.5368763 -3.0390625 11.19140625 C-4.21473397 13.01378403 -4.21473397 13.01378403 -3.8125 15.3984375 C-2.6631181 19.07866994 -0.83278554 22.24177398 1.0390625 25.59765625 C2.11210983 28.28027458 2.01634763 29.34892455 1 32 C0.01 31.67 -0.98 31.34 -2 31 C-3.68272986 31.62501395 -5.34630643 32.30177383 -7 33 C-9.00504934 33.48728291 -11.0134101 33.9274876 -13.03515625 34.33984375 C-15.426395 35.14326194 -17.05800124 36.41266471 -19 38 C-20.17176518 35.87767021 -21.33754785 33.75242209 -22.5 31.625 C-22.83386719 31.02171875 -23.16773438 30.4184375 -23.51171875 29.796875 C-26 25.2265625 -26 25.2265625 -26 23 C-27.093125 23.0825 -28.18625 23.165 -29.3125 23.25 C-38.0379361 23.20367025 -45.16575487 19.50422011 -51.5390625 13.78125 C-53.12973168 11.84182447 -53.6019658 10.45275126 -54 8 C-53.319375 8.7425 -52.63875 9.485 -51.9375 10.25 C-49.87173774 12.33943862 -47.82656173 13.77968792 -45.25 15.1875 C-42 17 -42 17 -41 19 C-38.12817413 19.47618812 -35.32879853 19.84167597 -32.4375 20.125 C-31.63119141 20.21136719 -30.82488281 20.29773438 -29.99414062 20.38671875 C-27.99695936 20.59943628 -25.99857263 20.80077855 -24 21 C-22.515 25.455 -22.515 25.455 -21 30 C-18.72729255 29.21340905 -16.45691996 28.4209739 -14.1875 27.625 C-13.54490234 27.40328125 -12.90230469 27.1815625 -12.24023438 26.953125 C-9.18313283 25.8760115 -6.71407209 24.80938139 -4 23 C-4.31195313 22.46890625 -4.62390625 21.9378125 -4.9453125 21.390625 C-5.33460938 20.68421875 -5.72390625 19.9778125 -6.125 19.25 C-6.71667969 18.20585938 -6.71667969 18.20585938 -7.3203125 17.140625 C-8 15 -8 15 -7.27734375 12.98828125 C-6.64505859 12.00408203 -6.64505859 12.00408203 -6 11 C-5.58621094 10.32839844 -5.17242187 9.65679687 -4.74609375 8.96484375 C-3.87174537 7.61025626 -2.99674226 6.25609116 -2.12109375 4.90234375 C-0.84878807 2.89506996 -0.84878807 2.89506996 0 0 Z " fill="#3981DE" transform="translate(173,78)"/>
<path d="M0 0 C5.97380976 3.61572696 10.91650921 8.24020471 16 13 C16.88042969 13.80308594 17.76085937 14.60617188 18.66796875 15.43359375 C43.21234618 38.70293859 57.88318697 74.28288267 59 108 C59.0600662 111.66865875 59.0638625 115.33145395 59 119 C55.35278005 115.35278005 55.84540616 110.22977356 55.50756836 105.31420898 C53.25543234 74.98788677 42.74081434 47.39057467 22.84765625 24.3046875 C21 22 21 22 19.93359375 19.7578125 C19.06748623 17.63943114 19.06748623 17.63943114 16 17 C16 16.34 16 15.68 16 15 C15.44441406 14.76152344 14.88882812 14.52304688 14.31640625 14.27734375 C11.46938564 12.70740153 9.33071826 10.76079551 6.9375 8.5625 C6.08027344 7.78003906 5.22304688 6.99757812 4.33984375 6.19140625 C2.52403566 4.49079133 0.74156074 2.77582096 -1 1 C-0.67 0.67 -0.34 0.34 0 0 Z " fill="#A254DF" transform="translate(448,162)"/>
<path d="M0 0 C0 0.33 0 0.66 0 1 C-1.05960938 1.31130859 -1.05960938 1.31130859 -2.140625 1.62890625 C-18.39899307 6.51050169 -34.05440755 11.88328515 -49 20 C-49.6914209 20.36915527 -50.3828418 20.73831055 -51.09521484 21.11865234 C-53.21634817 22.25415957 -55.32847644 23.40467289 -57.4375 24.5625 C-58.06366211 24.90200684 -58.68982422 25.24151367 -59.33496094 25.59130859 C-68.64506843 30.81687078 -76.13311453 37.8491318 -83.5625 45.4375 C-84.78936523 46.67790039 -84.78936523 46.67790039 -86.04101562 47.94335938 C-88.03205607 49.95768684 -90.01822797 51.97656044 -92 54 C-92 48.77578893 -89.43796844 46.12335774 -85.875 42.5 C-65.65752999 22.74796814 -29.30346834 -1.02819187 0 0 Z " fill="#35DFEA" transform="translate(167,133)"/>
<path d="M0 0 C0.495 0.99 0.495 0.99 1 2 C-11.12930471 19.13855004 -22.95665992 29.78021418 -42.15966797 38.16992188 C-44.42097808 39.18988133 -46.57794256 40.36573132 -48.75 41.5625 C-52.1785224 43.22299191 -55.59077 44.61798127 -59.203125 45.82421875 C-60.15219727 46.14253662 -61.10126953 46.46085449 -62.07910156 46.78881836 C-65.71489371 47.98525046 -69.35630751 49.16330579 -73.00390625 50.32324219 C-75.0387473 50.96256411 -75.0387473 50.96256411 -77 52 C-77 51.34 -77 50.68 -77 50 C-77.66 49.67 -78.32 49.34 -79 49 C-78.33097656 48.89042969 -77.66195313 48.78085937 -76.97265625 48.66796875 C-58.91205303 44.60967289 -42.69018048 35.35808471 -30 22 C-29.34 22.33 -28.68 22.66 -28 23 C-31.3 26.3 -34.6 29.6 -38 33 C-27.93197248 28.75255089 -20.87292727 24.5803071 -14 16 C-12.45961835 14.10312243 -10.91789781 12.20733152 -9.375 10.3125 C-8.66085937 9.42175781 -7.94671875 8.53101563 -7.2109375 7.61328125 C-4.93580953 4.92412823 -2.52274982 2.45636166 0 0 Z " fill="#7761D8" transform="translate(448,329)"/>
<path d="M0 0 C0 0.66 0 1.32 0 2 C-25.65507601 13.28823344 -51.50913253 20.6018869 -79.125 25.4375 C-80.10186768 25.61369873 -81.07873535 25.78989746 -82.08520508 25.97143555 C-87.70725789 26.90018552 -92.3847105 27.01075211 -98 26 C-98 25.67 -98 25.34 -98 25 C-97.35901367 24.91024902 -96.71802734 24.82049805 -96.05761719 24.72802734 C-64.68286943 20.27208068 -34.2006999 13.9496217 -5.03515625 1.25 C-2 0 -2 0 0 0 Z " fill="#513CD2" transform="translate(419,410)"/>
<path d="M0 0 C1.77310547 0.01353516 1.77310547 0.01353516 3.58203125 0.02734375 C4.44183594 0.03894531 5.30164063 0.05054688 6.1875 0.0625 C2.3356217 2.50440693 -1.82125648 2.71034349 -6.25 3.125 C-7.53837769 3.26264771 -7.53837769 3.26264771 -8.8527832 3.40307617 C-14.2607389 3.9245018 -19.55191182 4.07744427 -24.984375 3.953125 C-41.10853984 3.6993421 -50.26329273 5.06856339 -61.96582031 16.37207031 C-64.94421118 19.09845561 -68.23088883 21.26668768 -71.625 23.4375 C-72.72457031 24.16710937 -73.82414063 24.89671875 -74.95703125 25.6484375 C-78.11126539 27.21045222 -78.64708521 27.08497013 -81.8125 26.0625 C-80.80832031 25.45664062 -79.80414063 24.85078125 -78.76953125 24.2265625 C-63.79419251 15.46957151 -63.79419251 15.46957151 -51.02416992 3.95922852 C-48.14939619 1.49382206 -46.50581581 1.53944494 -42.75390625 1.48828125 C-40.96629883 1.44670898 -40.96629883 1.44670898 -39.14257812 1.40429688 C-37.89927734 1.39462891 -36.65597656 1.38496094 -35.375 1.375 C-32.93875316 1.33212206 -30.50255204 1.28656052 -28.06640625 1.23828125 C-26.86153564 1.21709229 -25.65666504 1.19590332 -24.4152832 1.17407227 C-19.82389953 1.03188467 -15.26615596 0.66217578 -10.68969727 0.27856445 C-7.10856097 0.00963737 -3.59066619 -0.03626936 0 0 Z " fill="#2043D5" transform="translate(318.8125,435.9375)"/>
<path d="M0 0 C0 0.66 0 1.32 0 2 C-19.36540103 6.93319159 -39.14941203 9.4578012 -59.0625 10.8125 C-60.48205994 10.90911171 -60.48205994 10.90911171 -61.93029785 11.00767517 C-66.63920533 11.32170754 -71.34842841 11.61190752 -76.06054688 11.87329102 C-77.80078198 11.97931742 -79.54101639 12.08535531 -81.28125 12.19140625 C-82.07378174 12.22882935 -82.86631348 12.26625244 -83.68286133 12.30480957 C-88.47964515 12.608144 -91.73601906 13.60643759 -96 16 C-98.5546875 16.29296875 -98.5546875 16.29296875 -100.875 16.1875 C-102.04675781 16.14689453 -102.04675781 16.14689453 -103.2421875 16.10546875 C-103.82226562 16.07066406 -104.40234375 16.03585937 -105 16 C-101.25 14 -101.25 14 -99 14 C-99 13.34 -99 12.68 -99 12 C-103.29 12 -107.58 12 -112 12 C-112 11.67 -112 11.34 -112 11 C-111.4135672 10.97938507 -110.8271344 10.95877014 -110.22293091 10.93753052 C-104.02379443 10.71826364 -97.82506135 10.4893953 -91.62646484 10.25537109 C-89.32446881 10.16966018 -87.0223854 10.08625906 -84.72021484 10.00537109 C-71.74810569 9.54793059 -58.88680046 8.93382958 -46.00958252 7.26086426 C-44.00674046 7.00087498 -42.00261696 6.75494682 -39.99755859 6.51269531 C-36.20408868 6.04772306 -32.4145111 5.55860319 -28.625 5.0625 C-26.75134766 4.82756836 -26.75134766 4.82756836 -24.83984375 4.58789062 C-17.84879955 3.67109225 -11.11393487 2.42901664 -4.30615234 0.58374023 C-2 0 -2 0 0 0 Z " fill="#5766DA" transform="translate(369,378)"/>
<path d="M0 0 C0.66 0 1.32 0 2 0 C-0.06602053 13.15568956 -20.22879056 28.03501169 -30.52734375 35.58203125 C-36.811027 40.03487686 -43.38330466 44.0647161 -50 48 C-50.64743164 48.38833008 -51.29486328 48.77666016 -51.96191406 49.17675781 C-56.75820347 52 -56.75820347 52 -59 52 C-58 49 -58 49 -55.4453125 47.45703125 C-54.34960938 46.91433594 -53.25390625 46.37164062 -52.125 45.8125 C-45.59290245 42.46199219 -39.85325062 38.4345382 -34 34 C-32.10574808 32.64362208 -30.20991915 31.28944377 -28.3125 29.9375 C-20.10455034 24.45257503 -20.10455034 24.45257503 -14 17 C-13.34 17 -12.68 17 -12 17 C-11.72929687 16.40960938 -11.45859375 15.81921875 -11.1796875 15.2109375 C-10.0161144 13.03020115 -8.77885829 11.45024257 -7.125 9.625 C-5.12026271 7.36111374 -3.35959417 5.12211779 -1.75 2.5625 C-1.1725 1.716875 -0.595 0.87125 0 0 Z " fill="#AE41E0" transform="translate(478,359)"/>
<path d="M0 0 C0.66 0 1.32 0 2 0 C2.01458252 0.66829834 2.02916504 1.33659668 2.04418945 2.02514648 C2.37426786 15.62134425 3.06751558 28.70974704 6 42 C6.29193312 43.41791392 6.58359461 44.83588378 6.875 46.25390625 C9.00222192 56.22039752 12.18781504 65.55848858 16 75 C15.01 75.495 15.01 75.495 14 76 C2.57335609 51.57603947 -0.71767993 26.80442531 0 0 Z " fill="#14A8E6" transform="translate(40,265)"/>
<path d="M0 0 C0 0.33 0 0.66 0 1 C-8.97872787 4.45335687 -18.82677532 4.27257131 -28.32992554 4.81594849 C-49.29186958 5.83582044 -49.29186958 5.83582044 -70 9 C-69.34 8.67 -68.68 8.34 -68 8 C-68 7.34 -68 6.68 -68 6 C-45.60455016 2.32057232 -22.72781343 -0.17756104 0 0 Z " fill="#28DAEA" transform="translate(255,121)"/>
<path d="M0 0 C0.66 0 1.32 0 2 0 C1.5665641 11.59441022 -1.36684632 19.98479837 -10 28 C-14.64003622 31.46716675 -20.23225499 33.89376659 -26.078125 34.05859375 C-28.49629047 34.06683295 -28.49629047 34.06683295 -32 35 C-33.87875978 37.47869988 -34.98629535 40.07226091 -36 43 C-36.66 43 -37.32 43 -38 43 C-37.6875 40.875 -37.6875 40.875 -37 38 C-36.7525 36.948125 -36.505 35.89625 -36.25 34.8125 C-32.94798384 30.6849798 -29.51203771 31.11303375 -24.43359375 30.546875 C-17.15276897 29.3872442 -10.57995587 25.82903475 -6 20 C-3.07492485 14.69153028 -2.27468685 9.45085612 -1.4296875 3.4765625 C-1 1 -1 1 0 0 Z " fill="#4832D0" transform="translate(431,67)"/>
<path d="M0 0 C0.33 0 0.66 0 1 0 C6.0841399 21.99715687 1.98809957 47.94389606 -8 68 C-9.68359375 69.91015625 -9.68359375 69.91015625 -11 71 C-10.41693543 67.26838672 -9.24397937 63.95013588 -7.89453125 60.43359375 C-5.42697641 53.72055156 -3.0212323 46.96721476 -2.375 39.8125 C-2 36 -2 36 0 34 C0.17502995 31.41896694 0.23162279 28.94691837 0.1953125 26.3671875 C0.1924826 25.61535187 0.18965271 24.86351624 0.18673706 24.08889771 C0.17552874 21.68410422 0.15042352 19.27968119 0.125 16.875 C0.11497102 15.24609912 0.10584503 13.61719242 0.09765625 11.98828125 C0.07558735 7.99204444 0.04105351 3.99608506 0 0 Z " fill="#7763DD" transform="translate(461,256)"/>
<path d="M0 0 C6.1105424 -0.11269443 11.95170514 0.10395632 18 1 C18 1.33 18 1.66 18 2 C16.60427948 2.02736707 15.20839779 2.04655989 13.8125 2.0625 C13.03519531 2.07410156 12.25789063 2.08570313 11.45703125 2.09765625 C8.87887289 1.99518573 6.51344269 1.56697553 4 1 C3.87882813 1.88042969 3.75765625 2.76085937 3.6328125 3.66796875 C3.38144531 5.41013672 3.38144531 5.41013672 3.125 7.1875 C2.96257812 8.33605469 2.80015625 9.48460937 2.6328125 10.66796875 C2.05406265 13.71533677 1.19161855 16.15563847 0 19 C-0.50921838 20.90890242 -0.98712498 22.82636434 -1.4375 24.75 C-2.69874286 29.94940933 -4.2330567 34.95159058 -6 40 C-6.66 39.67 -7.32 39.34 -8 39 C-5.14528697 26.18737623 -1.70124248 13.59275434 2 1 C1.34 0.67 0.68 0.34 0 0 Z " fill="#1C50DF" transform="translate(175,424)"/>
<path d="M0 0 C8.94724791 -0.42530932 17.56583549 0.27076378 26.4375 1.375 C27.98244141 1.56412964 27.98244141 1.56412964 29.55859375 1.75708008 C36.49843387 2.66239939 42.73298502 3.76045093 49 7 C38.35784142 6.2868718 27.78320422 5.13966228 17.1875 3.9375 C15.51239308 3.74914173 13.837263 3.56098935 12.16210938 3.37304688 C8.10780259 2.91773204 4.05381726 2.45965196 0 2 C0 1.34 0 0.68 0 0 Z " fill="#1EACE6" transform="translate(315,123)"/>
<path d="M0 0 C0.495 0.99 0.495 0.99 1 2 C-8.75238402 15.77999197 -20.27069361 30.40094208 -37 36 C-37.66 35.67 -38.32 35.34 -39 35 C-36.52669102 32.93890918 -34.00587699 31.45878712 -31.125 30.0625 C-20.48450755 24.81109245 -14.51374757 16.72202089 -7.2109375 7.61328125 C-4.93580953 4.92412823 -2.52274982 2.45636166 0 0 Z " fill="#7C53D7" transform="translate(448,329)"/>
<path d="M0 0 C0.680625 0.7425 1.36125 1.485 2.0625 2.25 C4.12826226 4.33943862 6.17343827 5.77968792 8.75 7.1875 C12 9 12 9 13 11 C15.87182587 11.47618812 18.67120147 11.84167597 21.5625 12.125 C22.36880859 12.21136719 23.17511719 12.29773438 24.00585938 12.38671875 C26.00304064 12.59943628 28.00142737 12.80077855 30 13 C30.18175781 13.63808594 30.36351562 14.27617188 30.55078125 14.93359375 C30.80214844 15.75988281 31.05351562 16.58617188 31.3125 17.4375 C31.67794922 18.67306641 31.67794922 18.67306641 32.05078125 19.93359375 C32.36402344 20.61550781 32.67726562 21.29742187 33 22 C33.99 22.33 34.98 22.66 36 23 C35.505 24.485 35.505 24.485 35 26 C32 25 32 25 30.83203125 23.22265625 C30.49558594 22.50980469 30.15914062 21.79695313 29.8125 21.0625 C29.46832031 20.35222656 29.12414062 19.64195313 28.76953125 18.91015625 C28 17 28 17 28 15 C26.906875 15.0825 25.81375 15.165 24.6875 15.25 C15.9620639 15.20367025 8.83424513 11.50422011 2.4609375 5.78125 C0.87026832 3.84182447 0.3980342 2.45275126 0 0 Z " fill="#0D63D4" transform="translate(119,86)"/>
<path d="M0 0 C11.8578466 7.17711768 24.70186182 19.17198295 32 31 C32 31.66 32 32.32 32 33 C28.28855316 31.76285105 27.32919305 30.24082029 24.9375 27.1875 C24.24527344 26.31480469 23.55304688 25.44210938 22.83984375 24.54296875 C21 22 21 22 19.94140625 19.73828125 C19.06157498 17.6407425 19.06157498 17.6407425 16 17 C16 16.34 16 15.68 16 15 C15.44441406 14.76152344 14.88882812 14.52304688 14.31640625 14.27734375 C11.46938564 12.70740153 9.33071826 10.76079551 6.9375 8.5625 C6.08027344 7.78003906 5.22304688 6.99757812 4.33984375 6.19140625 C2.52403566 4.49079133 0.74156074 2.77582096 -1 1 C-0.67 0.67 -0.34 0.34 0 0 Z " fill="#7370E1" transform="translate(448,162)"/>
<path d="M0 0 C1.77310547 0.01353516 1.77310547 0.01353516 3.58203125 0.02734375 C4.44183594 0.03894531 5.30164063 0.05054688 6.1875 0.0625 C3.3557908 1.63593842 1.06145321 2.37676268 -2.15625 2.6953125 C-2.98390869 2.77934326 -3.81156738 2.86337402 -4.66430664 2.94995117 C-5.53821045 3.02834229 -6.41211426 3.1067334 -7.3125 3.1875 C-8.21669678 3.27169189 -9.12089355 3.35588379 -10.05249023 3.44262695 C-23.03568348 4.59076885 -35.82804597 3.82309563 -48.8125 3.0625 C-48.8125 2.7325 -48.8125 2.4025 -48.8125 2.0625 C-47.64231323 2.02491577 -47.64231323 2.02491577 -46.44848633 1.98657227 C-42.84055455 1.86900056 -39.23278397 1.74701995 -35.625 1.625 C-34.39845703 1.58568359 -33.17191406 1.54636719 -31.90820312 1.50585938 C-24.81155684 1.26243879 -17.75762077 0.84908894 -10.6809082 0.26977539 C-7.10376677 0.0112859 -3.58601348 -0.03622236 0 0 Z " fill="#353CD2" transform="translate(318.8125,435.9375)"/>
<path d="M0 0 C8.51470245 9.82465668 19.35902993 27.74447889 20.1875 41 C20.125625 41.66 20.06375 42.32 20 43 C18 42 18 42 16.9921875 39.40234375 C16.62351562 38.25894531 16.25484375 37.11554688 15.875 35.9375 C11.72042831 23.6494877 5.31517811 12.29077299 -1 1 C-0.67 0.67 -0.34 0.34 0 0 Z " fill="#8965DC" transform="translate(480,194)"/>
<path d="M0 0 C0 0.33 0 0.66 0 1 C-1.22976563 1.10957031 -2.45953125 1.21914063 -3.7265625 1.33203125 C-5.35943595 1.49156486 -6.99224526 1.65175593 -8.625 1.8125 C-9.83736328 1.91788086 -9.83736328 1.91788086 -11.07421875 2.02539062 C-16.05944427 2.53201924 -19.5228127 3.63275154 -24 6 C-26.5546875 6.29296875 -26.5546875 6.29296875 -28.875 6.1875 C-30.04675781 6.14689453 -30.04675781 6.14689453 -31.2421875 6.10546875 C-31.82226562 6.07066406 -32.40234375 6.03585937 -33 6 C-29.25 4 -29.25 4 -27 4 C-27 3.34 -27 2.68 -27 2 C-31.29 2 -35.58 2 -40 2 C-40 1.67 -40 1.34 -40 1 C-13.24874212 -0.19388403 -13.24874212 -0.19388403 0 0 Z " fill="#4279E0" transform="translate(297,388)"/>
<path d="M0 0 C4.76720617 0.70758122 9.37527739 1.81621124 14.0234375 3.06640625 C14.76961334 3.26475571 15.51578918 3.46310516 16.28457642 3.66746521 C18.6487517 4.29654769 21.01188126 4.92946157 23.375 5.5625 C24.98560934 5.99179071 26.59628577 6.42082978 28.20703125 6.84960938 C32.13880303 7.89682996 36.06964208 8.94748605 40 10 C40 10.33 40 10.66 40 11 C32.51047934 11.49684781 26.0471383 9.65804708 18.875 7.625 C17.72128906 7.30789063 16.56757813 6.99078125 15.37890625 6.6640625 C10.20408306 5.23158549 5.08493672 3.72776258 0 2 C0 1.34 0 0.68 0 0 Z " fill="#0445D5" transform="translate(138,413)"/>
<path d="M0 0 C6.60677396 0.53069546 12.16018847 2.27218927 18.3125 4.6875 C19.24094727 5.04763184 20.16939453 5.40776367 21.12597656 5.77880859 C31.19437225 9.75707859 40.12533486 14.82060353 49 21 C48.01 21.33 47.02 21.66 46 22 C43.65234375 20.7421875 43.65234375 20.7421875 40.9375 18.875 C28.49030435 10.67411328 14.39298155 4.869901 0 1 C0 0.67 0 0.34 0 0 Z " fill="#569BE9" transform="translate(376,175)"/>
<path d="M0 0 C0 0.66 0 1.32 0 2 C-11.1961098 6.85687002 -22.33988326 11.37473202 -34 15 C-34 14.01 -34 13.02 -34 12 C-32.86304688 11.63648438 -31.72609375 11.27296875 -30.5546875 10.8984375 C-21.70146014 8.02883707 -13.10966926 4.93144793 -4.625 1.1015625 C-2 0 -2 0 0 0 Z " fill="#6E34DB" transform="translate(419,410)"/>
<path d="M0 0 C1.45191892 4.35575677 1.5404789 6.8309531 -0.4140625 11.05859375 C-2.38215082 15.50894513 -2.97664559 20.0198347 -3.625 24.8125 C-3.86433152 26.50691627 -4.10638641 28.20095079 -4.3515625 29.89453125 C-4.45291504 30.63550049 -4.55426758 31.37646973 -4.65869141 32.13989258 C-5 34 -5 34 -6 36 C-6.66 35.67 -7.32 35.34 -8 35 C-7.40701073 31.2064995 -6.79853393 27.41563234 -6.1875 23.625 C-6.02185547 22.56410156 -5.85621094 21.50320312 -5.68554688 20.41015625 C-2.82692308 2.82692308 -2.82692308 2.82692308 0 0 Z " fill="#1CC5E9" transform="translate(48,229)"/>
<path d="M0 0 C3.31343542 2.20895695 4.04306697 4.01425488 5.703125 7.51953125 C9.67051396 15.10776013 14.96958648 22.08318141 20 29 C19.01 29 18.02 29 17 29 C11.61661253 23.20250581 7.38775013 16.26498206 3.4375 9.4375 C3.09114502 8.84243652 2.74479004 8.24737305 2.38793945 7.63427734 C0.83225942 4.86199105 0 3.23358138 0 0 Z " fill="#1075DC" transform="translate(55,340)"/>
<path d="M0 0 C16.335 0.495 16.335 0.495 33 1 C32.34 1.33 31.68 1.66 31 2 C31 2.66 31 3.32 31 4 C23.80540143 4.21120322 16.97912425 3.60752499 9.875 2.5 C8.91851562 2.35691406 7.96203125 2.21382813 6.9765625 2.06640625 C4.64997784 1.71741855 2.32460844 1.36187667 0 1 C0 0.67 0 0.34 0 0 Z " fill="#11B8EC" transform="translate(284,121)"/>
<path d="M0 0 C-1 2 -1 2 -4.0625 3.0625 C-6.83576024 3.83285007 -9.32010023 4.04445506 -12.1875 4.125 C-15.9812159 4.56651304 -15.9812159 4.56651304 -17.39453125 6.83984375 C-18.40209246 8.86564704 -19.26011899 10.86310683 -20 13 C-20.66 13 -21.32 13 -22 13 C-21.6875 10.875 -21.6875 10.875 -21 8 C-20.7525 6.948125 -20.505 5.89625 -20.25 4.8125 C-16.93043732 0.66304665 -13.33468559 0.8254459 -8.2265625 0.2265625 C-5.46769293 0.03284042 -2.76374535 -0.05175553 0 0 Z " fill="#3431C8" transform="translate(415,97)"/>
<path d="M0 0 C3.6024118 3.40227781 6.28027138 6.8735152 9 11 C9.66 11.33 10.32 11.66 11 12 C10.67 12.66 10.34 13.32 10 14 C9.01 14.33 8.02 14.66 7 15 C5.29144978 18.00007271 5.29144978 18.00007271 4 21 C3.01 21 2.02 21 1 21 C1.30035156 20.46890625 1.60070312 19.9378125 1.91015625 19.390625 C2.29042969 18.68421875 2.67070312 17.9778125 3.0625 17.25 C3.44535156 16.55390625 3.82820313 15.8578125 4.22265625 15.140625 C5.16282938 12.55160551 5.00688252 11.53734395 4 9 C2.83404344 7.05591393 2.83404344 7.05591393 1.4375 5.25 C0.98246094 4.63640625 0.52742188 4.0228125 0.05859375 3.390625 C-0.46541016 2.70226562 -0.46541016 2.70226562 -1 2 C-0.67 1.34 -0.34 0.68 0 0 Z " fill="#3741C8" transform="translate(372,81)"/>
<path d="M0 0 C0.66 0 1.32 0 2 0 C1.70354318 4.05157649 0.85187819 6.43381175 -1.625 9.5625 C-3.71755795 12.22199585 -3.71755795 12.22199585 -3.9375 15.5625 C-3.628125 16.366875 -3.31875 17.17125 -3 18 C-2.4740625 19.6396875 -2.4740625 19.6396875 -1.9375 21.3125 C-1.628125 22.199375 -1.31875 23.08625 -1 24 C-4.47733117 22.84088961 -4.71562011 22.31738459 -6.3125 19.1875 C-6.67988281 18.50042969 -7.04726562 17.81335938 -7.42578125 17.10546875 C-8 15 -8 15 -7.265625 12.9921875 C-6.84796875 12.33476563 -6.4303125 11.67734375 -6 11 C-5.58621094 10.32839844 -5.17242187 9.65679687 -4.74609375 8.96484375 C-3.87174537 7.61025626 -2.99674226 6.25609116 -2.12109375 4.90234375 C-0.84878807 2.89506996 -0.84878807 2.89506996 0 0 Z " fill="#087EDB" transform="translate(173,78)"/>
<path d="M0 0 C0.66 0 1.32 0 2 0 C2.31453125 1.11117188 2.6290625 2.22234375 2.953125 3.3671875 C5.25970032 11.4180312 7.62134919 19.31781631 11 27 C10.34 27.33 9.68 27.66 9 28 C0 7.78640777 0 7.78640777 0 0 Z " fill="#1293E3" transform="translate(45,313)"/>
<path d="M0 0 C0 0.33 0 0.66 0 1 C-8.58 1 -17.16 1 -26 1 C-25.67 0.34 -25.34 -0.32 -25 -1 C-16.95332415 -3.59570189 -7.99628729 -1.90549825 0 0 Z " fill="#1FC8EE" transform="translate(275,123)"/>
<path d="M0 0 C0.33 0.66 0.66 1.32 1 2 C-3.70194081 8.91535443 -8.38285107 14.8435515 -15 20 C-15 15.9049637 -12.86714617 14.07461984 -10.3125 11.125 C-9.65991211 10.34962891 -9.65991211 10.34962891 -8.99414062 9.55859375 C-6.14467895 6.20678253 -3.14704571 3.07333112 0 0 Z " fill="#6454D2" transform="translate(448,329)"/>
<path d="M0 0 C6.1105424 -0.11269443 11.95170514 0.10395632 18 1 C18 1.33 18 1.66 18 2 C16.60427948 2.02736707 15.20839779 2.04655989 13.8125 2.0625 C13.03519531 2.07410156 12.25789062 2.08570313 11.45703125 2.09765625 C9 2 9 2 4 1 C3.34 5.29 2.68 9.58 2 14 C1.01 14 0.02 14 -1 14 C-0.45144652 9.428721 0.41744803 5.32564205 2 1 C1.34 0.67 0.68 0.34 0 0 Z " fill="#2B64E1" transform="translate(175,424)"/>
<path d="M0 0 C0 0.33 0 0.66 0 1 C-5.98368341 3.66641331 -11.96522925 3.22314726 -18.375 3.125 C-19.49261719 3.11597656 -20.61023438 3.10695313 -21.76171875 3.09765625 C-24.50803462 3.07418346 -27.25390472 3.04134728 -30 3 C-30 2.67 -30 2.34 -30 2 C-25.39545016 0.899716 -20.83421824 0.67334755 -16.125 0.4375 C-15.34769531 0.39431641 -14.57039062 0.35113281 -13.76953125 0.30664062 C-9.17260097 0.06327373 -4.60314104 -0.04296265 0 0 Z " fill="#12D9ED" transform="translate(255,121)"/>
<path d="M0 0 C0.66 0.33 1.32 0.66 2 1 C1.34773438 1.49628906 0.69546875 1.99257813 0.0234375 2.50390625 C-10.03273681 10.15708056 -10.03273681 10.15708056 -16 21 C-16.65625 19.2734375 -16.65625 19.2734375 -17 17 C-13.73391558 9.75666761 -7.43162805 3.01815098 0 0 Z " fill="#C354EA" transform="translate(388,40)"/>
<path d="M0 0 C0 0.66 0 1.32 0 2 C-1.99656531 3.38708748 -3.97238415 4.64408132 -6.0625 5.875 C-6.65651611 6.23142578 -7.25053223 6.58785156 -7.86254883 6.95507812 C-9.57087342 7.9770369 -11.28530353 8.98876875 -13 10 C-13.77601563 10.46664063 -14.55203125 10.93328125 -15.3515625 11.4140625 C-19.72347122 14 -19.72347122 14 -22 14 C-20.61941853 9.85825558 -18.65082119 9.50985165 -14.8125 7.5625 C-11.2967283 5.76644292 -7.97644948 3.98414172 -4.69921875 1.77734375 C-2 0 -2 0 0 0 Z " fill="#8E3CDA" transform="translate(441,397)"/>
<path d="M0 0 C0.680625 0.7425 1.36125 1.485 2.0625 2.25 C4.12826226 4.33943862 6.17343827 5.77968792 8.75 7.1875 C12 9 12 9 13 11 C16.02934491 11.65772428 16.02934491 11.65772428 19 12 C19 12.66 19 13.32 19 14 C11.96061336 13.472046 7.16853193 9.89746544 2 5.375 C0 3 0 3 0 0 Z " fill="#046FD8" transform="translate(119,86)"/>
<path d="M0 0 C2.01565047 3.52078685 2.82990674 7.05088764 3.6875 11 C3.95949219 12.216875 4.23148437 13.43375 4.51171875 14.6875 C4.94757352 17.64433877 5.02405328 19.25086369 4 22 C1.59434728 15.50473766 -0.29097621 8.91298191 -1 2 C-0.67 1.34 -0.34 0.68 0 0 Z " fill="#9855D9" transform="translate(500,235)"/>
<path d="M0 0 C0.66 0 1.32 0 2 0 C3.11083501 3.33250502 3.16759585 5.93038958 3.1875 9.4375 C3.20167969 10.57058594 3.21585938 11.70367187 3.23046875 12.87109375 C3.01071135 15.85457979 2.55843386 17.49295423 1 20 C-0.23839599 13.34362157 -0.09139136 6.7528064 0 0 Z " fill="#0CA4E1" transform="translate(174,60)"/>
<path d="M0 0 C4.50727647 0.60266785 7.8587963 2.36599794 11.8125 4.5625 C12.7087207 5.0565332 12.7087207 5.0565332 13.62304688 5.56054688 C15.08533998 6.36773267 16.5431399 7.18304917 18 8 C17.34 8.66 16.68 9.32 16 10 C10.72 7.36 5.44 4.72 0 2 C0 1.34 0 0.68 0 0 Z " fill="#6189E6" transform="translate(419,146)"/>
<path d="M0 0 C2.23019727 0.28367868 4.45913454 0.57727388 6.6875 0.875 C7.92886719 1.03742188 9.17023438 1.19984375 10.44921875 1.3671875 C13.57795295 1.92478369 16.12148102 2.69008123 19 4 C19 4.33 19 4.66 19 5 C5.3667426 4.03644647 5.3667426 4.03644647 -1 3 C-0.67 2.01 -0.34 1.02 0 0 Z " fill="#2CABEB" transform="translate(345,125)"/>
<path d="M0 0 C0.37125 0.45375 0.7425 0.9075 1.125 1.375 C2.98288674 3.20762927 2.98288674 3.20762927 5.875 3.875 C9.58422566 5.21032124 11.39822907 7.09213838 14 10 C13.01 10 12.02 10 11 10 C11 9.34 11 8.68 11 8 C9.081875 7.7215625 9.081875 7.7215625 7.125 7.4375 C6.40570313 7.33308594 5.68640625 7.22867188 4.9453125 7.12109375 C2.91859333 6.8315703 2.91859333 6.8315703 1 8 C-0.35439668 5.29120665 -0.06501451 2.99066732 0 0 Z " fill="#7A4BD7" transform="translate(370,74)"/>
<path d="M0 0 C0.66 0 1.32 0 2 0 C1.88487847 1.72985242 1.75744323 3.45888751 1.625 5.1875 C1.55539062 6.15042969 1.48578125 7.11335938 1.4140625 8.10546875 C0.99784147 11.01508938 0.20125904 13.32890774 -1 16 C-1.66 15.67 -2.32 15.34 -3 15 C-2.69257097 12.68682039 -2.37892298 10.37446648 -2.0625 8.0625 C-1.88847656 6.77472656 -1.71445312 5.48695312 -1.53515625 4.16015625 C-1 1 -1 1 0 0 Z " fill="#6C3FD1" transform="translate(431,67)"/>
<path d="M0 0 C0.66 0 1.32 0 2 0 C5 5.75 5 5.75 5 8 C5.61875 8.12375 6.2375 8.2475 6.875 8.375 C9 9 9 9 11 11 C10.34 11 9.68 11 9 11 C8.67 11.99 8.34 12.98 8 14 C7.67 13.34 7.34 12.68 7 12 C6.01 12.495 6.01 12.495 5 13 C4.16453285 11.02173314 3.33168055 9.04236176 2.5 7.0625 C2.0359375 5.96035156 1.571875 4.85820313 1.09375 3.72265625 C0 1 0 1 0 0 Z " fill="#11A6E7" transform="translate(113,75)"/>
<path d="M0 0 C0.33 0.99 0.66 1.98 1 3 C-0.23590921 4.52862454 -1.479153 6.05341683 -2.79296875 7.515625 C-4.23497037 9.28896033 -4.6150633 10.76736712 -5 13 C-5.99 14.485 -5.99 14.485 -7 16 C-7.66 15.67 -8.32 15.34 -9 15 C-8.07005883 13.05886066 -7.1307547 11.1222049 -6.1875 9.1875 C-5.66542969 8.10855469 -5.14335938 7.02960937 -4.60546875 5.91796875 C-3.23889883 3.43420298 -2.12659899 1.8200622 0 0 Z " fill="#28DBED" transform="translate(122,47)"/>
<path d="M0 0 C5.19644801 2.30809974 9.26251886 4.56174115 13 9 C13 9.66 13 10.32 13 11 C11.0625 10.1875 11.0625 10.1875 9 9 C8.67 8.01 8.34 7.02 8 6 C5.90280128 4.97718482 5.90280128 4.97718482 3.4375 4.3125 C2.61121094 4.06113281 1.78492188 3.80976562 0.93359375 3.55078125 C0.29550781 3.36902344 -0.34257812 3.18726563 -1 3 C-0.67 2.01 -0.34 1.02 0 0 Z " fill="#2CD6EC" transform="translate(157,40)"/>
<path d="M0 0 C1.8871875 0.0309375 1.8871875 0.0309375 3.8125 0.0625 C3.8125 0.3925 3.8125 0.7225 3.8125 1.0625 C2.1625 1.3925 0.5125 1.7225 -1.1875 2.0625 C-0.8575 2.7225 -0.5275 3.3825 -0.1875 4.0625 C-4.6425 5.5475 -4.6425 5.5475 -9.1875 7.0625 C-8.1875 3.0625 -8.1875 3.0625 -7.1875 1.0625 C-4.43671116 0.14557039 -2.82801087 -0.04636083 0 0 Z " fill="#1594D8" transform="translate(361.1875,238.9375)"/>
<path d="M0 0 C-3.34389424 2.22926283 -5.5595141 2.62875222 -9.5 3.25 C-11.21703125 3.53617187 -11.21703125 3.53617187 -12.96875 3.828125 C-16 4 -16 4 -19 2 C-12.53205867 0.48766299 -6.64409958 -0.21432579 0 0 Z " fill="#533ACD" transform="translate(366,429)"/>
<path d="M0 0 C0.66 0.33 1.32 0.66 2 1 C-2.41404428 5.08915269 -6.4341272 8.63450406 -12 11 C-12.33 10.34 -12.66 9.68 -13 9 C-8.71 6.03 -4.42 3.06 0 0 Z " fill="#9D41DC" transform="translate(453,387)"/>
<path d="M0 0 C0.99 0 1.98 0 3 0 C3.34615998 5.65394631 2.43425238 9.03006806 0 14 C-1.53445094 10.93109813 -0.54984289 8.29905734 0 5 C-0.66 5 -1.32 5 -2 5 C-1.34 3.35 -0.68 1.7 0 0 Z " fill="#7667D9" transform="translate(428,326)"/>
<path d="M0 0 C3.9492568 0.55105909 7.34920174 1.38935371 11 3 C11 3.66 11 4.32 11 5 C11.99 5.33 12.98 5.66 14 6 C13.01 7.98 12.02 9.96 11 12 C10.67 12 10.34 12 10 12 C10 9.36 10 6.72 10 4 C9.278125 3.87625 8.55625 3.7525 7.8125 3.625 C5.04278106 3.0095069 2.6029646 2.11555626 0 1 C0 0.67 0 0.34 0 0 Z " fill="#5C5DD6" transform="translate(381,105)"/>
<path d="M0 0 C2.97 0 5.94 0 9 0 C5.19958418 2.91365213 3.19208393 4.13131548 -1.625 4.0625 C-2.85089844 4.04896484 -2.85089844 4.04896484 -4.1015625 4.03515625 C-5.04128906 4.01775391 -5.04128906 4.01775391 -6 4 C-2.25 2 -2.25 2 0 2 C0 1.34 0 0.68 0 0 Z " fill="#4964DF" transform="translate(270,390)"/>
<path d="M0 0 C0.66 0.33 1.32 0.66 2 1 C0.11620471 2.99195579 -1.7805332 4.9679364 -3.6875 6.9375 C-4.48317383 7.78344727 -4.48317383 7.78344727 -5.29492188 8.64648438 C-8.36097936 11.78778253 -10.39885498 13.73537014 -15 14 C-11.8122776 10.67945583 -8.38557792 7.68545967 -4.90234375 4.68359375 C-3.2005794 3.17751483 -1.58645745 1.62599533 0 0 Z " fill="#696DD3" transform="translate(418,351)"/>
<path d="M0 0 C0.66 0.33 1.32 0.66 2 1 C1.525625 1.598125 1.05125 2.19625 0.5625 2.8125 C-1.16465744 5.00382924 -1.16465744 5.00382924 -2 8 C-2.66 8 -3.32 8 -4 8 C-4.66 9.98 -5.32 11.96 -6 14 C-7 11 -7 11 -6.07421875 8.5546875 C-5.61660156 7.67039062 -5.15898437 6.78609375 -4.6875 5.875 C-4.23761719 4.98554687 -3.78773438 4.09609375 -3.32421875 3.1796875 C-2 1 -2 1 0 0 Z " fill="#5B62DC" transform="translate(375,102)"/>
<path d="M0 0 C3 1 3 1 4.6875 3.9375 C6 7 6 7 6 9 C6.99 9.33 7.98 9.66 9 10 C6.69 10.33 4.38 10.66 2 11 C2.66 10.67 3.32 10.34 4 10 C2.68 6.7 1.36 3.4 0 0 Z " fill="#35B2E8" transform="translate(178,119)"/>
<path d="M0 0 C0.66 0.33 1.32 0.66 2 1 C-1.63 4.63 -5.26 8.26 -9 12 C-9 7.8407692 -6.75316432 5.85455565 -4 3 C-1.6875 1.125 -1.6875 1.125 0 0 Z " fill="#2F81C5" transform="translate(343,238)"/>
<path d="M0 0 C0.99 0.33 1.98 0.66 3 1 C3.66 4.3 4.32 7.6 5 11 C4.01 11.33 3.02 11.66 2 12 C1.34 8.04 0.68 4.08 0 0 Z " fill="#A440DC" transform="translate(428,56)"/>
<path d="M0 0 C1.76923828 0.01353516 1.76923828 0.01353516 3.57421875 0.02734375 C4.47785156 0.03894531 5.38148438 0.05054688 6.3125 0.0625 C2.6167402 2.52633986 0.68166956 2.13783051 -3.6875 2.0625 C-5.36307379 2.34770405 -7.03567245 2.66205696 -8.6875 3.0625 C-9.0175 2.4025 -9.3475 1.7425 -9.6875 1.0625 C-6.26517028 -0.07827657 -3.60076783 -0.03565117 0 0 Z " fill="#36E2EB" transform="translate(144.6875,37.9375)"/>
<path d="M0 0 C4.55015893 1.51671964 6.50057264 5.16891053 9 9 C8.01 9 7.02 9 6 9 C4.39453125 7.28515625 4.39453125 7.28515625 2.8125 5.0625 C2.28269531 4.33160156 1.75289063 3.60070312 1.20703125 2.84765625 C0 1 0 1 0 0 Z " fill="#0964DF" transform="translate(66,360)"/>
<path d="M0 0 C0.33 0 0.66 0 1 0 C1.05429959 1.74965358 1.09292823 3.49979787 1.125 5.25 C1.14820313 6.22453125 1.17140625 7.1990625 1.1953125 8.203125 C0.99862781 11.0196498 0.44568916 12.60949036 -1 15 C-2.125 7.375 -2.125 7.375 -1 4 C-0.65772583 2.66893378 -0.32248257 1.33599921 0 0 Z " fill="#5E5ED7" transform="translate(460,291)"/>
<path d="M0 0 C3.74281699 2.38179263 6.97727468 4.74475735 10 8 C6.39426104 8 5.58663434 7.18292538 2.8125 5 C2.09707031 4.443125 1.38164062 3.88625 0.64453125 3.3125 C0.10183594 2.879375 -0.44085938 2.44625 -1 2 C-0.67 1.34 -0.34 0.68 0 0 Z " fill="#6871E4" transform="translate(448,162)"/>
<path d="M0 0 C2.6486859 3.19668988 4.93992341 6.39486597 7 10 C6.01 10 5.02 10 4 10 C2.35 7.03 0.7 4.06 -1 1 C-0.67 0.67 -0.34 0.34 0 0 Z " fill="#8C60E1" transform="translate(480,194)"/>
<path d="M0 0 C2.64465038 3.1254959 3.84414715 6.08788267 5 10 C2 9 2 9 0.25 6.125 C-1 3 -1 3 0 0 Z " fill="#0B5CD0" transform="translate(167,92)"/>
<path d="M0 0 C4.875 4.625 4.875 4.625 6 8 C5.01 8 4.02 8 3 8 C1.02 4.535 1.02 4.535 -1 1 C-0.67 0.67 -0.34 0.34 0 0 Z " fill="#4A2DD6" transform="translate(372,81)"/>
<path d="M0 0 C2.91227269 3.28804981 4.49701212 5.59885603 5 10 C4.34 10 3.68 10 3 10 C1.68 7.03 0.36 4.06 -1 1 C-0.67 0.67 -0.34 0.34 0 0 Z " fill="#1EBFEA" transform="translate(170,50)"/>
<path d="M0 0 C0.66 0.33 1.32 0.66 2 1 C-1.07999946 4.67230705 -3.2482602 5.56802365 -8 6 C-5.54080489 3.3651481 -3.42227589 1.25483449 0 0 Z " fill="#35E5EC" transform="translate(132,40)"/>
<path d="M0 0 C3.33523252 1.38009621 5.18607951 2.84950652 7 6 C6.67 6.99 6.34 7.98 6 9 C3 5.25 3 5.25 3 3 C2.01 2.67 1.02 2.34 0 2 C0 1.34 0 0.68 0 0 Z " fill="#BC4EEB" transform="translate(421,46)"/>
<path d="M0 0 C0.99 0.33 1.98 0.66 3 1 C2.0409375 1.7734375 2.0409375 1.7734375 1.0625 2.5625 C-1.55791681 5.65935623 -1.69389817 8.02067623 -2 12 C-2.33 12 -2.66 12 -3 12 C-3.36923077 4.61538462 -3.36923077 4.61538462 -1.5 1.5 C-1.005 1.005 -0.51 0.51 0 0 Z " fill="#D7F2F9" transform="translate(182,245)"/>
<path d="M0 0 C0.66 0.33 1.32 0.66 2 1 C-0.64 3.64 -3.28 6.28 -6 9 C-6.66 8.67 -7.32 8.34 -8 8 C-5.33333333 5.33333333 -2.66666667 2.66666667 0 0 Z " fill="#277EC4" transform="translate(167,239)"/>
<path d="M0 0 C3.465 1.98 3.465 1.98 7 4 C7 4.99 7 5.98 7 7 C4.36 5.35 1.72 3.7 -1 2 C-0.67 1.34 -0.34 0.68 0 0 Z " fill="#6982E7" transform="translate(439,156)"/>
<path d="M0 0 C1.19156292 4.76625167 0.3415946 5.87879351 -2 10 C-2.66 9.34 -3.32 8.68 -4 8 C-2.68 5.36 -1.36 2.72 0 0 Z " fill="#5F88DD" transform="translate(388,121)"/>
<path d="M0 0 C1.32 0.66 2.64 1.32 4 2 C-0.29 1.67 -4.58 1.34 -9 1 C-4.77133864 -1.11433068 -4.23194454 -1.26958336 0 0 Z " fill="#3AA8E9" transform="translate(360,128)"/>
<path d="M0 0 C-1 3 -1 3 -4.0625 4.6875 C-5.031875 5.120625 -6.00125 5.55375 -7 6 C-7.66 5.34 -8.32 4.68 -9 4 C-2.25 0 -2.25 0 0 0 Z " fill="#4335BF" transform="translate(422,92)"/>
<path d="M0 0 C4.875 4.625 4.875 4.625 6 8 C2.00003714 6.66667905 1.16217663 4.5042173 -1 1 C-0.67 0.67 -0.34 0.34 0 0 Z " fill="#7D71DF" transform="translate(474,187)"/>
<path d="M0 0 C2.31 0 4.62 0 7 0 C7 0.99 7 1.98 7 3 C7.66 3.33 8.32 3.66 9 4 C7.35 4 5.7 4 4 4 C4 3.01 4 2.02 4 1 C2.68 0.67 1.36 0.34 0 0 Z " fill="#0E8BD3" transform="translate(182,239)"/>
<path d="M0 0 C2.64 0.66 5.28 1.32 8 2 C7.34 2.66 6.68 3.32 6 4 C2.375 3.625 2.375 3.625 -1 3 C-0.67 2.01 -0.34 1.02 0 0 Z " fill="#519AE8" transform="translate(385,133)"/>
<path d="M0 0 C1 3 1 3 0.22265625 5.04296875 C-0.16019531 5.75066406 -0.54304688 6.45835938 -0.9375 7.1875 C-1.31777344 7.90292969 -1.69804687 8.61835937 -2.08984375 9.35546875 C-2.54037109 10.16951172 -2.54037109 10.16951172 -3 11 C-3.83583327 8.62392051 -4.1842383 7.45550373 -3.22265625 5.078125 C-1.61132812 2.5390625 -1.61132812 2.5390625 0 0 Z " fill="#B44DE5" transform="translate(375,50)"/>
</svg>
